<?xml version="1.0" encoding="UTF-8" standalone="no"?>
<!DOCTYPE svg PUBLIC "-//W3C//DTD SVG 1.1//EN"
 "http://www.w3.org/Graphics/SVG/1.1/DTD/svg11.dtd">
<!-- Generated by graphviz version 2.43.0 (0)
 -->
<!-- Title: SolarBMS Pages: 1 -->
<svg width="632pt" height="935pt"
 viewBox="0.00 0.00 631.83 935.00" xmlns="http://www.w3.org/2000/svg" xmlns:xlink="http://www.w3.org/1999/xlink">
<g id="graph0" class="graph" transform="scale(1 1) rotate(0) translate(4 931)">
<title>SolarBMS</title>
<polygon fill="white" stroke="transparent" points="-4,4 -4,-931 627.83,-931 627.83,4 -4,4"/>
<!-- START -->
<g id="node1" class="node">
<title>START</title>
<ellipse fill="#aaffaa" stroke="black" cx="152" cy="-909" rx="27.1" ry="18"/>
<text text-anchor="middle" x="152" y="-905.3" font-family="Times,serif" font-size="14.00">Start</text>
</g>
<!-- CHECK_UTIL -->
<g id="node2" class="node">
<title>CHECK_UTIL</title>
<path fill="#ffcccb" stroke="black" d="M141.77,-847.73C141.77,-847.73 100.23,-822.27 100.23,-822.27 95.12,-819.14 95.12,-812.86 100.23,-809.73 100.23,-809.73 141.77,-784.27 141.77,-784.27 146.88,-781.14 157.12,-781.14 162.23,-784.27 162.23,-784.27 203.77,-809.73 203.77,-809.73 208.88,-812.86 208.88,-819.14 203.77,-822.27 203.77,-822.27 162.23,-847.73 162.23,-847.73 157.12,-850.86 146.88,-850.86 141.77,-847.73"/>
<text text-anchor="middle" x="152" y="-819.8" font-family="Times,serif" font-size="14.00">Utility</text>
<text text-anchor="middle" x="152" y="-804.8" font-family="Times,serif" font-size="14.00">present?</text>
</g>
<!-- START&#45;&gt;CHECK_UTIL -->
<g id="edge1" class="edge">
<title>START&#45;&gt;CHECK_UTIL</title>
<path fill="none" stroke="black" d="M152,-890.88C152,-882.43 152,-871.81 152,-861.27"/>
<polygon fill="black" stroke="black" points="154.45,-861.02 152,-854.02 149.55,-861.02 154.45,-861.02"/>
</g>
<!-- CHECK_SUN -->
<g id="node3" class="node">
<title>CHECK_SUN</title>
<path fill="#ffcccb" stroke="black" d="M57.77,-720.73C57.77,-720.73 16.23,-695.27 16.23,-695.27 11.12,-692.14 11.12,-685.86 16.23,-682.73 16.23,-682.73 57.77,-657.27 57.77,-657.27 62.88,-654.14 73.12,-654.14 78.23,-657.27 78.23,-657.27 119.77,-682.73 119.77,-682.73 124.88,-685.86 124.88,-692.14 119.77,-695.27 119.77,-695.27 78.23,-720.73 78.23,-720.73 73.12,-723.86 62.88,-723.86 57.77,-720.73"/>
<text text-anchor="middle" x="68" y="-692.8" font-family="Times,serif" font-size="14.00">Sunlight</text>
<text text-anchor="middle" x="68" y="-677.8" font-family="Times,serif" font-size="14.00">present?</text>
</g>
<!-- CHECK_UTIL&#45;&gt;CHECK_SUN -->
<g id="edge3" class="edge">
<title>CHECK_UTIL&#45;&gt;CHECK_SUN</title>
<path fill="none" stroke="black" d="M134.19,-788.49C121.21,-769.18 103.57,-742.93 89.76,-722.38"/>
<polygon fill="black" stroke="black" points="91.73,-720.91 85.79,-716.47 87.66,-723.65 91.73,-720.91"/>
<text text-anchor="middle" x="126.5" y="-748.8" font-family="Times,serif" font-size="14.00">Yes</text>
</g>
<!-- BAT_ABOVE_12V_1 -->
<g id="node4" class="node">
<title>BAT_ABOVE_12V_1</title>
<path fill="#ffcccb" stroke="black" d="M225.22,-704.71C225.22,-704.71 156.11,-691.29 156.11,-691.29 150.22,-690.14 150.22,-687.86 156.11,-686.71 156.11,-686.71 225.22,-673.29 225.22,-673.29 231.11,-672.14 242.89,-672.14 248.78,-673.29 248.78,-673.29 317.89,-686.71 317.89,-686.71 323.78,-687.86 323.78,-690.14 317.89,-691.29 317.89,-691.29 248.78,-704.71 248.78,-704.71 242.89,-705.86 231.11,-705.86 225.22,-704.71"/>
<text text-anchor="middle" x="237" y="-685.3" font-family="Times,serif" font-size="14.00">Battery &gt; 12V?</text>
</g>
<!-- CHECK_UTIL&#45;&gt;BAT_ABOVE_12V_1 -->
<g id="edge2" class="edge">
<title>CHECK_UTIL&#45;&gt;BAT_ABOVE_12V_1</title>
<path fill="none" stroke="black" d="M169.82,-788.8C185.5,-765.73 208.05,-732.57 222.61,-711.16"/>
<polygon fill="black" stroke="black" points="224.77,-712.34 226.68,-705.18 220.72,-709.59 224.77,-712.34"/>
<text text-anchor="middle" x="208.5" y="-748.8" font-family="Times,serif" font-size="14.00">No</text>
</g>
<!-- WAIT_SINCE_INV_TURNED_OFF -->
<g id="node6" class="node">
<title>WAIT_SINCE_INV_TURNED_OFF</title>
<path fill="#e1bee7" stroke="black" d="M143,-592.5C143,-592.5 51,-592.5 51,-592.5 45,-592.5 39,-586.5 39,-580.5 39,-580.5 39,-566.5 39,-566.5 39,-560.5 45,-554.5 51,-554.5 51,-554.5 143,-554.5 143,-554.5 149,-554.5 155,-560.5 155,-566.5 155,-566.5 155,-580.5 155,-580.5 155,-586.5 149,-592.5 143,-592.5"/>
<text text-anchor="middle" x="97" y="-577.3" font-family="Times,serif" font-size="14.00">Wait 5 min since</text>
<text text-anchor="middle" x="97" y="-562.3" font-family="Times,serif" font-size="14.00">inverter turned off</text>
</g>
<!-- CHECK_SUN&#45;&gt;WAIT_SINCE_INV_TURNED_OFF -->
<g id="edge5" class="edge">
<title>CHECK_SUN&#45;&gt;WAIT_SINCE_INV_TURNED_OFF</title>
<path fill="none" stroke="black" d="M76.23,-655.78C80.76,-638.05 86.3,-616.36 90.52,-599.85"/>
<polygon fill="black" stroke="black" points="93,-600.05 92.36,-592.66 88.25,-598.83 93,-600.05"/>
<text text-anchor="middle" x="96.5" y="-621.8" font-family="Times,serif" font-size="14.00">Yes</text>
</g>
<!-- SW_TO_UTIL -->
<g id="node7" class="node">
<title>SW_TO_UTIL</title>
<path fill="#bbdefb" stroke="black" d="M313.5,-38C313.5,-38 224.5,-38 224.5,-38 218.5,-38 212.5,-32 212.5,-26 212.5,-26 212.5,-12 212.5,-12 212.5,-6 218.5,0 224.5,0 224.5,0 313.5,0 313.5,0 319.5,0 325.5,-6 325.5,-12 325.5,-12 325.5,-26 325.5,-26 325.5,-32 319.5,-38 313.5,-38"/>
<text text-anchor="middle" x="269" y="-22.8" font-family="Times,serif" font-size="14.00">Switch to utility</text>
<text text-anchor="middle" x="269" y="-7.8" font-family="Times,serif" font-size="14.00">and record reason</text>
</g>
<!-- CHECK_SUN&#45;&gt;SW_TO_UTIL -->
<g id="edge6" class="edge">
<title>CHECK_SUN&#45;&gt;SW_TO_UTIL</title>
<path fill="none" stroke="black" d="M44.22,-665.15C24.61,-643.76 0,-609.87 0,-574.5 0,-574.5 0,-574.5 0,-93 0,-50.67 125.66,-32.1 205.21,-24.59"/>
<polygon fill="black" stroke="black" points="205.53,-27.02 212.28,-23.94 205.09,-22.14 205.53,-27.02"/>
<text text-anchor="middle" x="8.5" y="-359.3" font-family="Times,serif" font-size="14.00">No</text>
</g>
<!-- WAIT_SINCE_BAT_OVERLOAD_UND_VOLT -->
<g id="node5" class="node">
<title>WAIT_SINCE_BAT_OVERLOAD_UND_VOLT</title>
<path fill="#e1bee7" stroke="black" d="M284,-600C284,-600 190,-600 190,-600 184,-600 178,-594 178,-588 178,-588 178,-559 178,-559 178,-553 184,-547 190,-547 190,-547 284,-547 284,-547 290,-547 296,-553 296,-559 296,-559 296,-588 296,-588 296,-594 290,-600 284,-600"/>
<text text-anchor="middle" x="237" y="-584.8" font-family="Times,serif" font-size="14.00">Wait 5 min since</text>
<text text-anchor="middle" x="237" y="-569.8" font-family="Times,serif" font-size="14.00">battery overloaded</text>
<text text-anchor="middle" x="237" y="-554.8" font-family="Times,serif" font-size="14.00">or under&#45;voltage</text>
</g>
<!-- BAT_ABOVE_12V_1&#45;&gt;WAIT_SINCE_BAT_OVERLOAD_UND_VOLT -->
<g id="edge4" class="edge">
<title>BAT_ABOVE_12V_1&#45;&gt;WAIT_SINCE_BAT_OVERLOAD_UND_VOLT</title>
<path fill="none" stroke="black" d="M237,-670.76C237,-654.01 237,-628.14 237,-607.43"/>
<polygon fill="black" stroke="black" points="239.45,-607.35 237,-600.35 234.55,-607.35 239.45,-607.35"/>
<text text-anchor="middle" x="247.5" y="-621.8" font-family="Times,serif" font-size="14.00">Yes</text>
</g>
<!-- SW_TO_INV -->
<g id="node8" class="node">
<title>SW_TO_INV</title>
<path fill="#bbdefb" stroke="black" d="M259,-510C259,-510 215,-510 215,-510 209,-510 203,-504 203,-498 203,-498 203,-484 203,-484 203,-478 209,-472 215,-472 215,-472 259,-472 259,-472 265,-472 271,-478 271,-484 271,-484 271,-498 271,-498 271,-504 265,-510 259,-510"/>
<text text-anchor="middle" x="237" y="-494.8" font-family="Times,serif" font-size="14.00">Switch to</text>
<text text-anchor="middle" x="237" y="-479.8" font-family="Times,serif" font-size="14.00">inverter</text>
</g>
<!-- WAIT_SINCE_BAT_OVERLOAD_UND_VOLT&#45;&gt;SW_TO_INV -->
<g id="edge7" class="edge">
<title>WAIT_SINCE_BAT_OVERLOAD_UND_VOLT&#45;&gt;SW_TO_INV</title>
<path fill="none" stroke="black" d="M237,-546.59C237,-537.3 237,-526.85 237,-517.59"/>
<polygon fill="black" stroke="black" points="239.45,-517.47 237,-510.47 234.55,-517.47 239.45,-517.47"/>
</g>
<!-- WAIT_SINCE_INV_TURNED_OFF&#45;&gt;SW_TO_INV -->
<g id="edge8" class="edge">
<title>WAIT_SINCE_INV_TURNED_OFF&#45;&gt;SW_TO_INV</title>
<path fill="none" stroke="black" d="M128.42,-554.43C149.49,-542.32 177.36,-526.3 199.58,-513.52"/>
<polygon fill="black" stroke="black" points="200.84,-515.62 205.69,-510.01 198.4,-511.37 200.84,-515.62"/>
</g>
<!-- BAT_ABOVE_12V_2 -->
<g id="node9" class="node">
<title>BAT_ABOVE_12V_2</title>
<path fill="#ffcccb" stroke="black" d="M480.22,-378.71C480.22,-378.71 411.11,-365.29 411.11,-365.29 405.22,-364.14 405.22,-361.86 411.11,-360.71 411.11,-360.71 480.22,-347.29 480.22,-347.29 486.11,-346.14 497.89,-346.14 503.78,-347.29 503.78,-347.29 572.89,-360.71 572.89,-360.71 578.78,-361.86 578.78,-364.14 572.89,-365.29 572.89,-365.29 503.78,-378.71 503.78,-378.71 497.89,-379.86 486.11,-379.86 480.22,-378.71"/>
<text text-anchor="middle" x="492" y="-359.3" font-family="Times,serif" font-size="14.00">Battery &gt; 12V?</text>
</g>
<!-- SW_TO_INV&#45;&gt;BAT_ABOVE_12V_2 -->
<g id="edge9" class="edge">
<title>SW_TO_INV&#45;&gt;BAT_ABOVE_12V_2</title>
<path fill="none" stroke="black" d="M271.13,-473.14C320.9,-448.54 412.7,-403.19 460.77,-379.43"/>
<polygon fill="black" stroke="black" points="462.07,-381.52 467.26,-376.22 459.9,-377.13 462.07,-381.52"/>
</g>
<!-- DRAW_ABOVE_20A -->
<g id="node12" class="node">
<title>DRAW_ABOVE_20A</title>
<path fill="#ffcccb" stroke="black" d="M225.19,-432.88C225.19,-432.88 148.43,-419.12 148.43,-419.12 142.53,-418.06 142.53,-415.94 148.43,-414.88 148.43,-414.88 225.19,-401.12 225.19,-401.12 231.09,-400.06 242.91,-400.06 248.81,-401.12 248.81,-401.12 325.57,-414.88 325.57,-414.88 331.47,-415.94 331.47,-418.06 325.57,-419.12 325.57,-419.12 248.81,-432.88 248.81,-432.88 242.91,-433.94 231.09,-433.94 225.19,-432.88"/>
<text text-anchor="middle" x="237" y="-413.3" font-family="Times,serif" font-size="14.00">Drawing &gt; 20A?</text>
</g>
<!-- SW_TO_INV&#45;&gt;DRAW_ABOVE_20A -->
<g id="edge14" class="edge">
<title>SW_TO_INV&#45;&gt;DRAW_ABOVE_20A</title>
<path fill="none" stroke="black" d="M237,-471.83C237,-462.93 237,-452.09 237,-442.48"/>
<polygon fill="black" stroke="black" points="239.45,-442.42 237,-435.42 234.55,-442.42 239.45,-442.42"/>
</g>
<!-- BAT_ABOVE_11V -->
<g id="node10" class="node">
<title>BAT_ABOVE_11V</title>
<path fill="#ffcccb" stroke="black" d="M519.22,-197.71C519.22,-197.71 450.11,-184.29 450.11,-184.29 444.22,-183.14 444.22,-180.86 450.11,-179.71 450.11,-179.71 519.22,-166.29 519.22,-166.29 525.11,-165.14 536.89,-165.14 542.78,-166.29 542.78,-166.29 611.89,-179.71 611.89,-179.71 617.78,-180.86 617.78,-183.14 611.89,-184.29 611.89,-184.29 542.78,-197.71 542.78,-197.71 536.89,-198.86 525.11,-198.86 519.22,-197.71"/>
<text text-anchor="middle" x="531" y="-178.3" font-family="Times,serif" font-size="14.00">Battery &gt; 11V?</text>
</g>
<!-- BAT_ABOVE_12V_2&#45;&gt;BAT_ABOVE_11V -->
<g id="edge10" class="edge">
<title>BAT_ABOVE_12V_2&#45;&gt;BAT_ABOVE_11V</title>
<path fill="none" stroke="#ff0000" d="M495.6,-345.48C502.56,-313.51 517.9,-243.1 525.91,-206.36"/>
<polygon fill="#ff0000" stroke="#ff0000" points="528.31,-206.84 527.41,-199.48 523.53,-205.8 528.31,-206.84"/>
<text text-anchor="middle" x="523.5" y="-285.3" font-family="Times,serif" font-size="14.00">No</text>
</g>
<!-- BAT_ABOVE_11V&#45;&gt;SW_TO_UTIL -->
<g id="edge12" class="edge">
<title>BAT_ABOVE_11V&#45;&gt;SW_TO_UTIL</title>
<path fill="none" stroke="#ff0000" d="M525.26,-164.71C516.16,-141.31 496.21,-98.42 465,-75 426.65,-46.23 373.91,-32.5 332.8,-25.96"/>
<polygon fill="#ff0000" stroke="#ff0000" points="333.07,-23.52 325.78,-24.89 332.34,-28.37 333.07,-23.52"/>
<text text-anchor="middle" x="506.5" y="-90.3" font-family="Times,serif" font-size="14.00">No</text>
</g>
<!-- WAIT_BW_11V_12V -->
<g id="node11" class="node">
<title>WAIT_BW_11V_12V</title>
<path fill="#e1bee7" stroke="black" d="M446,-113C446,-113 416,-113 416,-113 410,-113 404,-107 404,-101 404,-101 404,-87 404,-87 404,-81 410,-75 416,-75 416,-75 446,-75 446,-75 452,-75 458,-81 458,-87 458,-87 458,-101 458,-101 458,-107 452,-113 446,-113"/>
<text text-anchor="middle" x="431" y="-97.8" font-family="Times,serif" font-size="14.00">Wait</text>
<text text-anchor="middle" x="431" y="-82.8" font-family="Times,serif" font-size="14.00">2 min</text>
</g>
<!-- BAT_ABOVE_11V&#45;&gt;WAIT_BW_11V_12V -->
<g id="edge11" class="edge">
<title>BAT_ABOVE_11V&#45;&gt;WAIT_BW_11V_12V</title>
<path fill="none" stroke="#ff0000" d="M508.06,-168.38C497.79,-162.24 485.81,-154.38 476,-146 466.49,-137.87 457.14,-127.73 449.44,-118.63"/>
<polygon fill="#ff0000" stroke="#ff0000" points="451.24,-116.96 444.88,-113.13 447.47,-120.09 451.24,-116.96"/>
<text text-anchor="middle" x="486.5" y="-134.8" font-family="Times,serif" font-size="14.00">Yes</text>
</g>
<!-- WAIT_BW_11V_12V&#45;&gt;SW_TO_UTIL -->
<g id="edge13" class="edge">
<title>WAIT_BW_11V_12V&#45;&gt;SW_TO_UTIL</title>
<path fill="none" stroke="#ff0000" d="M403.88,-80.78C379.87,-69.96 344.29,-53.93 315.7,-41.04"/>
<polygon fill="#ff0000" stroke="#ff0000" points="316.36,-38.65 308.97,-38.01 314.34,-43.12 316.36,-38.65"/>
</g>
<!-- DRAW_ABOVE_50A -->
<g id="node13" class="node">
<title>DRAW_ABOVE_50A</title>
<path fill="#ffcccb" stroke="black" d="M312.19,-197.88C312.19,-197.88 235.43,-184.12 235.43,-184.12 229.53,-183.06 229.53,-180.94 235.43,-179.88 235.43,-179.88 312.19,-166.12 312.19,-166.12 318.09,-165.06 329.91,-165.06 335.81,-166.12 335.81,-166.12 412.57,-179.88 412.57,-179.88 418.47,-180.94 418.47,-183.06 412.57,-184.12 412.57,-184.12 335.81,-197.88 335.81,-197.88 329.91,-198.94 318.09,-198.94 312.19,-197.88"/>
<text text-anchor="middle" x="324" y="-178.3" font-family="Times,serif" font-size="14.00">Drawing &gt; 50A?</text>
</g>
<!-- DRAW_ABOVE_20A&#45;&gt;DRAW_ABOVE_50A -->
<g id="edge15" class="edge">
<title>DRAW_ABOVE_20A&#45;&gt;DRAW_ABOVE_50A</title>
<path fill="none" stroke="#ff0000" d="M245.26,-400.21C254.27,-382.64 268.76,-353.26 279,-327 295.23,-285.38 309.81,-235.31 317.73,-206.51"/>
<polygon fill="#ff0000" stroke="#ff0000" points="320.12,-207.07 319.6,-199.67 315.39,-205.78 320.12,-207.07"/>
<text text-anchor="middle" x="314.5" y="-285.3" font-family="Times,serif" font-size="14.00">Yes</text>
</g>
<!-- CHECK_UTIL_SUN -->
<g id="node14" class="node">
<title>CHECK_UTIL_SUN</title>
<path fill="#ffcccb" stroke="black" d="M147.63,-323.18C147.63,-323.18 57.37,-292.82 57.37,-292.82 51.69,-290.91 51.69,-287.09 57.37,-285.18 57.37,-285.18 147.63,-254.82 147.63,-254.82 153.31,-252.91 164.69,-252.91 170.37,-254.82 170.37,-254.82 260.63,-285.18 260.63,-285.18 266.31,-287.09 266.31,-290.91 260.63,-292.82 260.63,-292.82 170.37,-323.18 170.37,-323.18 164.69,-325.09 153.31,-325.09 147.63,-323.18"/>
<text text-anchor="middle" x="159" y="-292.8" font-family="Times,serif" font-size="14.00">Sunlight &amp; utility</text>
<text text-anchor="middle" x="159" y="-277.8" font-family="Times,serif" font-size="14.00">present?</text>
</g>
<!-- DRAW_ABOVE_20A&#45;&gt;CHECK_UTIL_SUN -->
<g id="edge16" class="edge">
<title>DRAW_ABOVE_20A&#45;&gt;CHECK_UTIL_SUN</title>
<path fill="none" stroke="black" d="M227.44,-400.55C216.15,-382.32 196.99,-351.37 181.82,-326.86"/>
<polygon fill="black" stroke="black" points="183.82,-325.43 178.05,-320.77 179.65,-328.01 183.82,-325.43"/>
<text text-anchor="middle" x="222.5" y="-359.3" font-family="Times,serif" font-size="14.00">No</text>
</g>
<!-- DRAW_ABOVE_50A&#45;&gt;SW_TO_UTIL -->
<g id="edge17" class="edge">
<title>DRAW_ABOVE_50A&#45;&gt;SW_TO_UTIL</title>
<path fill="none" stroke="#ff0000" d="M322.51,-163.95C320.23,-142.56 314.81,-105.03 303,-75 298.86,-64.47 292.71,-53.71 286.78,-44.54"/>
<polygon fill="#ff0000" stroke="#ff0000" points="288.65,-42.93 282.73,-38.46 284.57,-45.64 288.65,-42.93"/>
<text text-anchor="middle" x="324.5" y="-90.3" font-family="Times,serif" font-size="14.00">Yes</text>
</g>
<!-- WAIT_10_SEC -->
<g id="node16" class="node">
<title>WAIT_10_SEC</title>
<path fill="#e1bee7" stroke="black" d="M284,-113C284,-113 254,-113 254,-113 248,-113 242,-107 242,-101 242,-101 242,-87 242,-87 242,-81 248,-75 254,-75 254,-75 284,-75 284,-75 290,-75 296,-81 296,-87 296,-87 296,-101 296,-101 296,-107 290,-113 284,-113"/>
<text text-anchor="middle" x="269" y="-97.8" font-family="Times,serif" font-size="14.00">Wait</text>
<text text-anchor="middle" x="269" y="-82.8" font-family="Times,serif" font-size="14.00">10 sec</text>
</g>
<!-- DRAW_ABOVE_50A&#45;&gt;WAIT_10_SEC -->
<g id="edge18" class="edge">
<title>DRAW_ABOVE_50A&#45;&gt;WAIT_10_SEC</title>
<path fill="none" stroke="#ff0000" d="M311.09,-166.14C306.1,-160.08 300.53,-152.9 296,-146 290.57,-137.72 285.31,-128.24 280.89,-119.71"/>
<polygon fill="#ff0000" stroke="#ff0000" points="283.05,-118.54 277.7,-113.41 278.68,-120.76 283.05,-118.54"/>
<text text-anchor="middle" x="304.5" y="-134.8" font-family="Times,serif" font-size="14.00">No</text>
</g>
<!-- DRAW_ABOVE_5A -->
<g id="node15" class="node">
<title>DRAW_ABOVE_5A</title>
<path fill="#ffcccb" stroke="black" d="M104.22,-197.73C104.22,-197.73 34.27,-184.27 34.27,-184.27 28.38,-183.13 28.38,-180.87 34.27,-179.73 34.27,-179.73 104.22,-166.27 104.22,-166.27 110.11,-165.13 121.89,-165.13 127.78,-166.27 127.78,-166.27 197.73,-179.73 197.73,-179.73 203.62,-180.87 203.62,-183.13 197.73,-184.27 197.73,-184.27 127.78,-197.73 127.78,-197.73 121.89,-198.87 110.11,-198.87 104.22,-197.73"/>
<text text-anchor="middle" x="116" y="-178.3" font-family="Times,serif" font-size="14.00">Drawing &gt; 5A?</text>
</g>
<!-- CHECK_UTIL_SUN&#45;&gt;DRAW_ABOVE_5A -->
<g id="edge19" class="edge">
<title>CHECK_UTIL_SUN&#45;&gt;DRAW_ABOVE_5A</title>
<path fill="none" stroke="black" d="M145.63,-255.35C139.02,-239.21 131.21,-220.13 125.26,-205.62"/>
<polygon fill="black" stroke="black" points="127.43,-204.45 122.51,-198.9 122.9,-206.3 127.43,-204.45"/>
<text text-anchor="middle" x="147.5" y="-221.8" font-family="Times,serif" font-size="14.00">Yes</text>
</g>
<!-- WAIT_5_MIN -->
<g id="node17" class="node">
<title>WAIT_5_MIN</title>
<path fill="#e1bee7" stroke="black" d="M214,-113C214,-113 184,-113 184,-113 178,-113 172,-107 172,-101 172,-101 172,-87 172,-87 172,-81 178,-75 184,-75 184,-75 214,-75 214,-75 220,-75 226,-81 226,-87 226,-87 226,-101 226,-101 226,-107 220,-113 214,-113"/>
<text text-anchor="middle" x="199" y="-97.8" font-family="Times,serif" font-size="14.00">Wait</text>
<text text-anchor="middle" x="199" y="-82.8" font-family="Times,serif" font-size="14.00">5 min</text>
</g>
<!-- DRAW_ABOVE_5A&#45;&gt;WAIT_5_MIN -->
<g id="edge20" class="edge">
<title>DRAW_ABOVE_5A&#45;&gt;WAIT_5_MIN</title>
<path fill="none" stroke="black" d="M130.08,-166.41C142.68,-153.35 161.4,-133.96 176.15,-118.68"/>
<polygon fill="black" stroke="black" points="178.28,-119.99 181.38,-113.26 174.76,-116.59 178.28,-119.99"/>
<text text-anchor="middle" x="171.5" y="-134.8" font-family="Times,serif" font-size="14.00">No</text>
</g>
<!-- WAIT_2_MIN -->
<g id="node18" class="node">
<title>WAIT_2_MIN</title>
<path fill="#e1bee7" stroke="black" d="M142,-113C142,-113 112,-113 112,-113 106,-113 100,-107 100,-101 100,-101 100,-87 100,-87 100,-81 106,-75 112,-75 112,-75 142,-75 142,-75 148,-75 154,-81 154,-87 154,-87 154,-101 154,-101 154,-107 148,-113 142,-113"/>
<text text-anchor="middle" x="127" y="-97.8" font-family="Times,serif" font-size="14.00">Wait</text>
<text text-anchor="middle" x="127" y="-82.8" font-family="Times,serif" font-size="14.00">2 min</text>
</g>
<!-- DRAW_ABOVE_5A&#45;&gt;WAIT_2_MIN -->
<g id="edge21" class="edge">
<title>DRAW_ABOVE_5A&#45;&gt;WAIT_2_MIN</title>
<path fill="none" stroke="black" d="M118.17,-164.01C119.77,-151.5 121.97,-134.3 123.78,-120.19"/>
<polygon fill="black" stroke="black" points="126.22,-120.4 124.68,-113.14 121.36,-119.78 126.22,-120.4"/>
<text text-anchor="middle" x="133.5" y="-134.8" font-family="Times,serif" font-size="14.00">Yes</text>
</g>
<!-- WAIT_10_SEC&#45;&gt;SW_TO_UTIL -->
<g id="edge22" class="edge">
<title>WAIT_10_SEC&#45;&gt;SW_TO_UTIL</title>
<path fill="none" stroke="#ff0000" d="M269,-74.96C269,-66.01 269,-55.05 269,-45.28"/>
<polygon fill="#ff0000" stroke="#ff0000" points="271.45,-45.09 269,-38.09 266.55,-45.09 271.45,-45.09"/>
</g>
<!-- WAIT_5_MIN&#45;&gt;SW_TO_UTIL -->
<g id="edge23" class="edge">
<title>WAIT_5_MIN&#45;&gt;SW_TO_UTIL</title>
<path fill="none" stroke="black" d="M216.3,-74.96C225.47,-65.39 236.84,-53.53 246.67,-43.28"/>
<polygon fill="black" stroke="black" points="248.58,-44.84 251.65,-38.09 245.04,-41.45 248.58,-44.84"/>
</g>
<!-- WAIT_2_MIN&#45;&gt;SW_TO_UTIL -->
<g id="edge24" class="edge">
<title>WAIT_2_MIN&#45;&gt;SW_TO_UTIL</title>
<path fill="none" stroke="black" d="M154.04,-79.1C174.79,-68.43 203.78,-53.53 227.46,-41.36"/>
<polygon fill="black" stroke="black" points="228.88,-43.38 233.99,-38 226.64,-39.02 228.88,-43.38"/>
</g>
</g>
</svg>
